<?xml version="1.0" encoding="iso-8859-1"?>
<!-- Generator: Adobe Illustrator 19.0.0, SVG Export Plug-In . SVG Version: 6.00 Build 0)  -->
<svg version="1.1" id="Layer_1" xmlns="http://www.w3.org/2000/svg" xmlns:xlink="http://www.w3.org/1999/xlink" x="0px" y="0px"
	 viewBox="0 0 512.001 512.001" style="enable-background:new 0 0 512.001 512.001;" xml:space="preserve">
<g>
	<g>
		<path d="M413.074,116.285c-3.309-8.337-9.669-14.872-17.902-18.397l-131.62-56.543c-15.096-6.494-32.041-7.327-47.708-2.343
			l-43.588,13.853c-4.463,1.418-6.93,6.186-5.512,10.647c1.418,4.463,6.187,6.932,10.647,5.512l43.59-13.853
			c11.782-3.748,24.521-3.122,35.874,1.762l131.633,56.548c4.062,1.74,7.195,4.96,8.827,9.069c1.632,4.115,1.559,8.615-0.198,12.649
			l7.749,3.439l-7.816-3.292c-3.495,7.879-12.586,11.751-20.702,8.809l-100.684-36.428c-9.56-3.471-20.146-3.582-29.81-0.319
			l-88.485,29.876c-13.711,4.641-21.669,19.258-18.115,33.286c2.129,8.347,7.862,15.136,15.73,18.628
			c6.347,2.816,13.47,3.17,20.056,0.991l77.202-25.505c6.114-2.013,12.872,1.048,15.387,6.989c1.358,3.191,1.324,6.709-0.095,9.905
			c-1.375,3.098-3.874,5.449-7.049,6.622l-121.83,45.261c-0.761,0.293-1.543,0.561-2.331,0.821
			c-19.399,6.436-41.477,3.121-59.062-8.868L13.253,181.78c-3.868-2.636-9.142-1.638-11.78,2.231
			c-2.637,3.869-1.638,9.143,2.231,11.78l64.008,43.623c14.511,9.893,31.526,15.032,48.441,15.031c8.642,0,17.259-1.342,25.5-4.075
			c1.211-0.4,2.195-0.748,3.003-1.06l121.718-45.221c7.493-2.767,13.408-8.323,16.658-15.643c3.297-7.43,3.37-15.967,0.203-23.409
			c-5.929-13.992-21.879-21.224-36.31-16.463l-77.207,25.506c-2.581,0.852-5.369,0.713-7.857-0.389
			c-3.089-1.371-5.341-4.039-6.173-7.306c-1.393-5.495,1.734-11.226,7.111-13.047l88.481-29.875
			c6.037-2.039,12.642-1.969,18.606,0.196l100.689,36.431c16.452,5.959,34.883-1.896,41.931-17.78l0.148-0.331
			C416.236,133.752,416.385,124.626,413.074,116.285z"/>
	</g>
</g>
<g>
	<g>
		<path d="M150.108,68.79c-1.418-4.463-6.189-6.93-10.647-5.512L77.966,82.823c-5.102,1.626-10.602,1.305-15.495-0.905l-5.427-2.444
			c-4.268-1.924-9.289-0.02-11.211,4.249c-1.923,4.267-0.02,9.287,4.248,11.21l5.418,2.441c5.046,2.28,10.461,3.43,15.895,3.43
			c3.939,0,7.889-0.605,11.713-1.822l61.49-19.544C149.059,78.019,151.527,73.251,150.108,68.79z"/>
	</g>
</g>
<g>
	<g>
		<path d="M510.496,396.33l-37.321-53.986c-13.009-18.826-33.995-30.692-56.122-31.739c-0.946-0.047-1.871-0.052-2.748-0.079
			l-110.008-1.32c-7.164-0.106-13.821,2.627-18.867,7.674c-5.123,5.124-7.918,12.202-7.669,19.404
			c0.448,13.538,11.393,24.662,24.925,25.328l68.812,3.348c1.977,0.096,3.839,0.921,5.242,2.325
			c1.743,1.742,2.575,4.146,2.286,6.586c-0.494,4.102-4.167,7.175-8.258,7.011l-79.057-3.33c-5.102-0.214-10.02-2.167-13.859-5.506
			l-68.514-59.471c-11.699-10.162-29.441-9.543-40.455,1.469c-0.015,0.015-0.088,0.088-0.102,0.103
			c-5.582,5.661-8.611,13.158-8.531,21.109c0.08,7.946,3.258,15.375,8.941,20.911l38.713,37.799
			c3.349,3.27,8.718,3.207,11.989-0.142c3.271-3.351,3.207-8.718-0.142-11.989l-38.72-37.806c-2.432-2.369-3.79-5.546-3.824-8.944
			c-0.034-3.403,1.263-6.612,3.647-9.03l-6.016-5.974l6.096,5.894c4.687-4.687,12.28-4.948,17.288-0.597l68.509,59.467
			c6.72,5.848,15.34,9.274,24.269,9.649l79.061,3.33c12.962,0.512,24.257-9.099,25.8-21.942c0.907-7.645-1.695-15.148-7.134-20.586
			c-4.387-4.388-10.214-6.97-16.409-7.271l-68.806-3.348c-4.78-0.235-8.648-4.167-8.807-8.965c-0.088-2.573,0.874-5.002,2.712-6.84
			c1.781-1.783,4.144-2.757,6.66-2.708l110.126,1.32c0.669,0,1.346,0.026,2.032,0.06c16.895,0.8,32.967,9.938,42.991,24.445
			l37.322,53.988c1.645,2.38,4.291,3.657,6.981,3.657c1.663,0,3.343-0.488,4.813-1.505
			C512.195,405.462,513.158,400.181,510.496,396.33z"/>
	</g>
</g>
<g>
	<g>
		<path d="M442.965,461.774l-3.539-3.578c-5.911-5.99-13.79-9.563-22.183-10.063l-122.357-7.349
			c-10.145-0.607-19.732-4.852-27.001-11.954l-27.274-26.632c-3.351-3.271-8.718-3.207-11.989,0.142s-3.207,8.718,0.142,11.989
			l27.272,26.63c10.182,9.951,23.62,15.9,37.835,16.75l122.359,7.349c4.211,0.251,8.161,2.043,11.134,5.055l3.547,3.585
			c1.658,1.676,3.841,2.515,6.026,2.515c2.155,0,4.31-0.816,5.962-2.451C446.228,470.471,446.257,465.102,442.965,461.774z"/>
	</g>
</g>
<g>
	<g>
		<path d="M352.901,188.141c-9.078,0-17.271,4.36-23.026,11.324c-5.755-6.963-13.948-11.324-23.026-11.324
			c-20.545,0-37.26,19.005-37.26,42.366c0,13.018,6.489,26.263,19.285,39.368c9.771,10.007,22.962,19.51,37.143,26.76
			c1.212,0.619,2.536,0.929,3.859,0.929s2.647-0.31,3.859-0.929c6.677-3.414,13.17-7.346,19.297-11.688
			c3.821-2.707,4.724-7.999,2.016-11.819c-2.706-3.818-7.996-4.723-11.818-2.016c-4.211,2.983-8.764,5.836-13.353,8.373
			c-21.551-11.919-43.331-31.534-43.331-48.977c0-14.011,9.109-25.41,20.304-25.41c8.022,0,14.548,8.358,14.548,18.632
			c0,4.682,3.795,8.478,8.478,8.478c4.683,0,8.478-3.796,8.478-8.478c0-10.274,6.526-18.632,14.548-18.632
			c11.195,0,20.304,11.399,20.304,25.41c0,6.292-2.799,13.17-8.318,20.444c-2.832,3.729-2.101,9.047,1.629,11.877
			c3.729,2.831,9.049,2.101,11.878-1.629c7.808-10.29,11.766-20.616,11.766-30.694C390.161,207.146,373.446,188.141,352.901,188.141
			z"/>
	</g>
</g>
<g>
</g>
<g>
</g>
<g>
</g>
<g>
</g>
<g>
</g>
<g>
</g>
<g>
</g>
<g>
</g>
<g>
</g>
<g>
</g>
<g>
</g>
<g>
</g>
<g>
</g>
<g>
</g>
<g>
</g>
</svg>
